<?xml version="1.0" standalone="no"?>
<!DOCTYPE svg PUBLIC "-//W3C//DTD SVG 20010904//EN"
 "http://www.w3.org/TR/2001/REC-SVG-20010904/DTD/svg10.dtd">
<svg version="1.0" xmlns="http://www.w3.org/2000/svg"
 width="640.000000pt" height="640.000000pt" viewBox="0 0 640.000000 640.000000"
 preserveAspectRatio="xMidYMid meet">
<metadata>
Created by potrace 1.14, written by Peter Selinger 2001-2017
</metadata>
<g transform="translate(0.000000,640.000000) scale(0.100000,-0.100000)"
fill="#000000" stroke="none">
<path d="M2130 5747 c-139 -31 -101 3 -1101 -995 -617 -616 -936 -942 -956
-976 -46 -77 -65 -142 -69 -231 -4 -94 11 -165 51 -250 25 -53 128 -160 939
-973 517 -518 937 -931 970 -954 86 -60 178 -86 285 -83 86 3 94 4 141 19 112
36 99 23 1071 995 865 866 937 941 966 1001 17 36 35 88 41 115 11 54 11 200
-1 211 -4 4 -7 16 -7 26 0 10 -14 48 -32 85 -29 64 -84 121 -967 1004 -834
834 -943 939 -996 964 -33 16 -64 30 -70 31 -5 2 -21 6 -35 9 -50 13 -176 14
-230 2z m217 -731 c82 -43 128 -120 128 -216 0 -82 -31 -146 -89 -188 -55 -39
-93 -51 -157 -48 -169 7 -273 179 -206 337 17 41 71 99 92 99 8 0 15 4 15 10
0 29 162 34 217 6z m-1312 -1272 c60 -18 120 -71 143 -124 19 -44 24 -132 10
-174 -19 -55 -67 -112 -116 -137 -58 -29 -154 -34 -204 -10 -48 23 -98 63 -98
78 0 7 -3 13 -8 13 -17 0 -37 69 -37 131 0 167 148 274 310 223z m1280 0 c60
-18 120 -71 143 -124 19 -44 24 -132 10 -174 -19 -55 -67 -112 -116 -137 -58
-29 -154 -34 -204 -10 -48 23 -98 63 -98 78 0 7 -3 13 -8 13 -17 0 -37 69 -37
131 0 167 148 274 310 223z m1312 -8 c82 -43 128 -120 128 -216 0 -82 -31
-146 -89 -188 -55 -39 -93 -51 -157 -48 -169 7 -273 179 -206 337 17 41 71 99
92 99 8 0 15 4 15 10 0 29 162 34 217 6z m-1283 -1280 c86 -45 131 -119 131
-217 0 -167 -148 -274 -309 -224 -97 31 -157 109 -162 214 -5 115 58 202 176
244 28 10 135 -1 164 -17z"/>
<path d="M4814 3840 c-3 -2 -23 -3 -45 -1 -36 2 -39 1 -30 -16 11 -22 40 -120
49 -165 12 -72 5 -263 -13 -333 -10 -38 -21 -77 -26 -85 -9 -19 -21 -51 -25
-68 -1 -8 -10 -22 -18 -31 -9 -10 -16 -21 -16 -25 0 -8 -50 -85 -70 -107 -8
-9 -332 -334 -718 -721 -669 -670 -704 -707 -702 -739 1 -19 1 -38 1 -44 -4
-23 0 -413 4 -449 15 -137 108 -276 235 -350 54 -32 74 -40 135 -54 17 -4 575
-7 1240 -7 l1210 0 62 25 c136 55 241 164 287 300 l26 75 -3 1210 -2 1210 -29
70 c-72 173 -223 286 -400 301 -73 6 -165 6 -175 0 -4 -3 -13 -1 -20 3 -7 5
-30 5 -52 1 -22 -4 -41 -4 -43 -1 -3 4 -34 4 -71 1 -36 -3 -71 -3 -76 1 -6 3
-28 3 -49 -1 -22 -4 -41 -5 -44 -3 -7 7 -226 9 -226 2 0 -3 -19 -3 -42 1 -24
3 -57 3 -75 -1 -17 -3 -37 -3 -43 1 -6 4 -29 4 -50 0 -22 -4 -42 -5 -44 -3 -6
7 -136 9 -142 3z m86 -1382 c85 -36 148 -148 137 -242 -16 -132 -107 -211
-241 -210 -60 0 -78 4 -116 29 -82 52 -118 116 -116 208 3 106 64 191 161 224
41 14 132 9 175 -9z"/>
</g>
</svg>
